<?xml version="1.0" encoding="UTF-8"?>
<!DOCTYPE svg PUBLIC "-//W3C//DTD SVG 1.1 Tiny//EN" "http://www.w3.org/Graphics/SVG/1.1/DTD/svg11-tiny.dtd">
<svg baseProfile="tiny" height="96px" version="1.1" viewBox="0 0 96 96" width="96px" x="0px" xmlns="http://www.w3.org/2000/svg" xmlns:xlink="http://www.w3.org/1999/xlink" y="0px">
<g>
<path d="M88,49c0,29.633-10.363,40-40,40C18.365,89,8,78.633,8,49   C8,19.365,18.365,9,48,9C77.637,9,88,19.365,88,49z" fill-opacity="0.4" stroke-opacity="0.4"/>
<linearGradient gradientTransform="matrix(1 0 0 -1 -262.4805 -290.0195)" gradientUnits="userSpaceOnUse" id="SVGID_1_" x1="310.4795" x2="310.4795" y1="-298.5654" y2="-379.2603">
<stop offset="0" style="stop-color:#00BACC"/>
<stop offset="0.2312" style="stop-color:#01A1BB"/>
<stop offset="0.747" style="stop-color:#026D98"/>
<stop offset="1" style="stop-color:#02598B"/>
</linearGradient>
<path d="M88,48c0,29.633-10.363,40-40,40C18.365,88,8,77.633,8,48C8,18.365,18.365,8,48,8   C77.637,8,88,18.365,88,48z" fill="url(#SVGID_1_)"/>
<rect fill="none" height="96" width="96"/>
<linearGradient gradientTransform="matrix(1 0 0 -1 -262.4805 -290.0195)" gradientUnits="userSpaceOnUse" id="SVGID_2_" x1="310.457" x2="310.457" y1="-298.2734" y2="-377.5185">
<stop offset="0" style="stop-color:#FFFFFF"/>
<stop offset="1" style="stop-color:#FFFFFF;stop-opacity:0"/>
</linearGradient>
<path d="M47.977,8C18.359,8,8,18.365,8,48   c0,29.633,10.359,40,39.977,40c29.619,0,39.977-10.367,39.977-40C87.953,18.365,77.596,8,47.977,8z M47.977,87   C18.836,87,9,77.158,9,48S18.836,9,47.977,9s38.978,9.842,38.978,39S77.117,87,47.977,87z" fill="url(#SVGID_2_)" fill-opacity="0.25" stroke-opacity="0.25"/>
<radialGradient cx="316.4395" cy="-320.1919" gradientTransform="matrix(1 0 0 -1 -262.4805 -290.0195)" gradientUnits="userSpaceOnUse" id="SVGID_3_" r="12.3654">
<stop offset="0" style="stop-color:#FAFCEF"/>
<stop offset="0.3232" style="stop-color:#FAFCEF"/>
<stop offset="1" style="stop-color:#D0CBC5"/>
</radialGradient>
<path d="M64.057,38.217l-0.629-0.621l0.021-0.58l0.928-0.93h2.225l1.521,1.52v0.611H64.057z M53.217,33.229   h-0.209l-0.436,0.438v0.48h1.508l0.416-0.416V33.27l-1.104-1.102l0.289-0.293v-0.346h-0.748l0.369-0.365h-0.548l-0.358,0.334v0.57   l0.819,0.818L53.217,33.229L53.217,33.229z M52.115,33.549v-0.34l0.223-0.223v-0.531h-0.5l-0.465,0.385v0.346l-0.395,0.398v0.426   h0.676L52.115,33.549z" fill="url(#SVGID_3_)"/>
<radialGradient cx="315.2822" cy="-310.8804" gradientTransform="matrix(1 0 0 -1 -262.4805 -290.0195)" gradientUnits="userSpaceOnUse" id="SVGID_4_" r="40.6428">
<stop offset="0" style="stop-color:#FAFCEF"/>
<stop offset="0.3232" style="stop-color:#FAFCEF"/>
<stop offset="1" style="stop-color:#D0CBC5"/>
</radialGradient>
<path d="M50.553,23.043h-8.838l-1.066,1.07H38.19v1.16h2.459v1.744h1.23l-0.711,0.711h-0.84v2.988h1.371   l1.541-1.535h1.064l2.625-2.617h0.967l3.176-3.166L50.553,23.043z" fill="url(#SVGID_4_)"/>
<path d="M48,82c-17.645,0-32-14.357-32-32.006C16,32.353,30.355,18,48,18   c17.645,0,32,14.353,32,31.994C80,67.643,65.645,82,48,82L48,82z" fill-opacity="0.02" stroke-opacity="0.02"/>
<path d="M48,81c-17.094,0-31-13.909-31-31.006C17,32.904,30.906,19,48,19   c17.094,0,31,13.904,31,30.994C79,67.091,65.094,81,48,81L48,81z" fill-opacity="0.02" stroke-opacity="0.02"/>
<path d="M48,80c-16.542,0-30-13.461-30-30.006C18,33.455,31.458,20,48,20   s30,13.455,30,29.994C78,66.539,64.542,80,48,80L48,80z" fill-opacity="0.05" stroke-opacity="0.05"/>
<path d="M48,79c-15.99,0-29-13.012-29-29.006C19,34.007,32.01,21,48,21   s29,13.007,29,28.994C77,65.988,63.99,79,48,79L48,79z" fill-opacity="0.05" stroke-opacity="0.05"/>
<path d="M48,78c-15.439,0-28-12.563-28-28.006C20,34.558,32.561,22,48,22   c15.439,0,28,12.558,28,27.994C76,65.438,63.439,78,48,78L48,78z" fill-opacity="0.15" stroke-opacity="0.15"/>
<path d="M75,49.994C75,64.912,62.916,77,48,77c-14.91,0-27-12.088-27-27.006   C21,35.087,33.09,23,48,23C62.916,23,75,35.087,75,49.994z" fill-opacity="0.15" stroke-opacity="0.15"/>
<radialGradient cx="295.4688" cy="-329.4878" gradientTransform="matrix(0.9927 0 0 -0.9942 -244.5366 -296.2139)" gradientUnits="userSpaceOnUse" id="SVGID_5_" r="38.3764">
<stop offset="0" style="stop-color:#00BACC"/>
<stop offset="0.2312" style="stop-color:#01A1BB"/>
<stop offset="0.747" style="stop-color:#026D98"/>
<stop offset="1" style="stop-color:#02598B"/>
</radialGradient>
<path d="M75,47.994C75,62.912,62.916,75,48,75c-14.91,0-27-12.088-27-27.006C21,33.087,33.09,21,48,21   C62.916,21,75,33.087,75,47.994z" fill="url(#SVGID_5_)"/>
<path d="M58.721,33.029c-0.021,0.021,0.088,0.033,0.268,0.039l-0.395-0.395C58.688,32.823,58.766,32.98,58.721,33.029z"/>
<polygon points="31.455,28.534 31.498,28.581 32.551,28.581 33.119,28.01 32.426,28.01 32.439,27.996 31.992,27.996  "/>
<polygon points="73.23,45.259 71.848,43.87 71.721,43.996 72.982,45.259  "/>
<path d="M72.803,38.395c0.154,0.355,0.303,0.712,0.439,1.075v-0.637L72.803,38.395z"/>
<path d="M60.459,33.053c0.406-0.012,0.723-0.023,0.723-0.023l1.348-1.346h-1.258v-0.947v-0.012v-0.721l-0.567,0.569v1.289v0.947   L60.459,33.053z"/>
<polygon points="25.076,52.693 25.818,52.693 25.818,52.497 25.018,52.497 24.158,51.641 24.158,51.775  "/>
<rect height="0.707" width="0.725" x="53.627" y="35.648"/>
<polygon points="62.529,31.684 63.004,31.212 63.004,30.736 61.271,30.736 61.271,31.684  "/>
<path d="M70.498,49.666l-2.438-2.438v0.947l2.438,2.438h1.711l2.736-2.729c-0.012-0.305-0.021-0.612-0.035-0.917l-2.701,2.699   H70.498z"/>
<path d="M58.381,32.369c0,0,0.113,0.147,0.213,0.305l0.395,0.395c0.351,0.011,0.976-0.002,1.472-0.016l0.244-0.243v-0.947   l-0.567,0.563h-0.841l-0.834-0.831H56.85v0.948h0.455l0.174-0.173L58.381,32.369L58.381,32.369z"/>
<polygon points="67.459,37.103 68.627,38.274 68.967,38.274 68.967,37.666 67.459,36.155 65.25,36.155 64.328,37.08 64.309,37.656    64.504,37.851 65.25,37.103  "/>
<polygon points="54.172,33.314 54.172,32.975 53.555,32.359 53.357,32.542 53.357,33.109 53.764,33.517 53.965,33.314  "/>
<polygon points="65.188,28.876 65.447,28.876 65.447,28.472 65.307,28.332 64.617,28.307  "/>
<polygon points="61.271,29.775 62.488,28.56 61.768,28.56 60.703,29.623 60.703,30.573 61.271,30.004  "/>
<path d="M72.803,38.395L72.008,37.6h-0.396v0.551l1.632,1.632V39.47C73.105,39.107,72.957,38.75,72.803,38.395z"/>
<polygon points="52.621,34.091 52.342,34.091 52.342,34.22 51.951,34.616 51.951,35.041 52.621,35.041 53.078,34.583    53.078,34.245 53.299,34.021 53.299,33.495 53.078,33.495 53.078,33.633  "/>
<path d="M70.029,37.035l0.465,0.479l0.904-0.904h0.598c-0.168-0.327-0.363-0.634-0.543-0.95h-0.055L70.029,37.035z"/>
<path d="M71.848,42.922l-0.6,0.6l0.473,0.474l0.127-0.126l1.383,1.389h1.479c-0.03-0.253-0.084-0.5-0.127-0.75H73.43L71.848,42.922   z"/>
<rect height="0.948" width="0.879" x="67.182" y="43.503"/>
<polygon points="58.207,56.223 58.207,57.169 59.793,58.756 59.793,57.807  "/>
<polygon points="51.912,53.396 49.299,50.783 49.299,51.73 51.912,54.346 58.207,54.346 58.207,53.396  "/>
<polygon points="67.041,64.75 69.109,62.68 69.109,61.732 67.041,63.803  "/>
<polygon points="54.635,40.375 56.098,38.915 56.098,38.151 58.123,38.151 59.879,39.907 60.605,39.181 60.131,38.707    59.879,38.959 58.123,37.204 56.098,37.204 56.098,37.965 54.051,40.012 52.619,40.012 52.123,39.517 52.123,40.466 52.506,40.851    52.982,40.375  "/>
<polygon points="61.398,38.944 61.398,39.783 62.92,39.783 62.92,39.224 63.561,39.224 65.422,41.084 67.029,41.084 67.029,40.136    65.422,40.136 63.561,38.274 62.92,38.274 62.92,38.833 61.398,38.833 61.398,37.996 60.004,36.606 58.98,36.606 59.928,37.556    60.004,37.556  "/>
<polygon points="69.109,57.941 73.168,53.889 73.168,52.938 69.109,56.992  "/>
<polygon points="55.146,34.699 55.441,34.404 55.441,34.303 55.197,34.059 55.027,34.228 54.172,34.228 54.172,34.262    53.965,34.262 53.531,34.699 53.531,35.177 53.627,35.177 53.627,34.699  "/>
<polygon points="61.271,69.82 59.793,68.346 59.793,69.295 61.271,70.771 62.406,70.771 64.609,69.186 67.041,66.904    67.041,65.957 63.176,69.82  "/>
<polygon points="32.039,37.245 28.824,40.46 27.752,40.46 26.125,42.089 26.125,43.037 27.752,41.41 28.824,41.41 32.039,38.194    33.922,38.194 34.438,37.682 34.438,36.734 33.922,37.245  "/>
<polygon points="28.664,62.12 27.924,62.12 25.299,59.495 25.299,60.443 27.924,63.07 28.664,63.07 30.047,64.451 30.047,63.503     "/>
<path d="M25.076,52.693l-0.918-0.918v-0.135l-2.102-2.1h-0.684l-0.309-0.311c-0.01-0.176-0.021-0.349-0.035-0.521H21.01   c0,0.077-0.012,0.154-0.012,0.232c0,0.418,0.045,0.822,0.064,1.236l0.309,0.311h0.684l2.961,2.955h0.801v-0.752h-0.741V52.693z"/>
<polygon points="33.879,34.682 33.879,35.105 34.438,35.105 34.438,35.631 36.539,35.631 37.232,34.944 37.232,34.458 37,34.226    36.539,34.682  "/>
<polygon points="37.221,28.616 37.221,29.365 36.533,30.051 35.766,30.051 34.998,29.285 34.605,29.285 34.605,29.845    35.766,30.998 35.93,30.998 36.428,30.501 36.428,30.998 36.533,30.998 37.221,30.313 37.221,29.565 38.398,29.565 38.893,29.068    38.418,28.594 38.398,28.616  "/>
<polygon points="38.432,24.299 37.498,25.231 35.891,25.231 35.453,25.676 36.449,25.676 36.951,26.181 37.498,26.181    38.506,25.175 38.975,24.717 39.254,24.717 39.254,24.299  "/>
<polygon points="39.727,61.475 41.674,59.527 41.674,58.578 39.727,60.525  "/>
<rect height="0.948" width="0.553" x="25.572" y="44.443"/>
<polygon points="37.049,66.159 37.049,67.107 38.803,65.352 39.727,65.352 39.727,64.404 38.803,64.404  "/>
<path d="M34.992,25.645h-0.559c-0.17,0.099-0.34,0.2-0.508,0.303h0.768L34.992,25.645z"/>
<polygon points="33.119,28.01 32.551,28.581 31.498,28.581 31.455,28.534 30.795,29.196 30.021,29.196 27.816,31.4 27.816,31.94    28.227,31.94 30.021,30.144 30.795,30.144 31.992,28.944 33.023,28.944 34.053,27.917 35.035,27.917 35.455,28.336 35.592,28.336    35.996,27.932 35.035,26.967 34.053,26.967 33.023,27.996 32.439,27.996 32.426,28.01  "/>
<path d="M25.055,42.688h-3.039l-0.334,0.334c-0.088,0.392-0.17,0.788-0.24,1.188l0.574-0.575h3.039l0.518,0.515v-0.947   L25.055,42.688z"/>
<polygon points="35.166,70.918 37.049,69.035 37.049,68.088 35.166,69.969  "/>
<polygon points="51.527,24.136 51.447,24.136 48.891,26.689 47.93,26.689 45.324,29.291 44.268,29.291 42.738,30.817    41.377,30.817 41.377,31.766 42.738,31.766 44.268,30.239 45.324,30.239 47.93,27.639 48.891,27.639 52.043,24.491  "/>
<rect height="0.949" width="2.441" x="39.254" y="25.406"/>
<polygon points="42.916,27.14 41.695,27.14 41.695,27.847 42.211,27.847  "/>
<linearGradient gradientTransform="matrix(1 0 0 -1 -262.4805 -290.0195)" gradientUnits="userSpaceOnUse" id="SVGID_6_" x1="310.4521" x2="310.4521" y1="-326.5386" y2="-356.9143">
<stop offset="0" style="stop-color:#FAFCEF"/>
<stop offset="0.3232" style="stop-color:#FAFCEF"/>
<stop offset="1" style="stop-color:#D0CBC5"/>
</linearGradient>
<path d="M51.951,34.091h0.67l0.457-0.458v-0.338l0.221-0.221v-0.528h-0.496l-0.461,0.382v0.344l-0.391,0.396   V34.091z M54.172,33.314h-0.207l-0.434,0.436v0.478h1.496l0.414-0.414v-0.458l-1.096-1.095l0.286-0.292v-0.344h-0.741l0.364-0.363   h-0.541l-0.356,0.332v0.567l0.813,0.813L54.172,33.314L54.172,33.314z M25.055,42.688l0.518,0.515v1.241h0.553V42.09l1.627-1.629   h1.072l3.215-3.215h1.883l0.516-0.51v-1.629H33.88v-0.423h2.66l0.693-0.688v-0.483l-0.805-0.804v-2.206l-0.879,0.878H34.65V30.14   h-1.328l-0.984,0.986h-0.537v1.606l-1.434,1.435v-1.326h-1.154V31.94h-1.396V31.4l2.205-2.204h0.773l1.197-1.2h1.031l1.029-1.029   h0.982l0.961,0.965l-0.404,0.404h-0.986v0.56l1.16,1.155h0.768l0.688-0.686v-0.75h1.178l0.494-0.498l-2.443-2.442h-0.996   l0.438-0.444h1.607l1.008-1.004l0.469-0.459h1.855l0.416-0.417h-4.229c-1.289,0.575-2.523,1.245-3.695,2.008v0.285h1.67   l-0.299,0.303h-1.15l-1.117,1.113h0.693l-0.568,0.57h-1.053l-0.427-0.43l0.625-0.625h-0.082c-5.248,4.021-8.971,9.91-10.174,16.686   l0.574-0.573H25.055z M67.182,47.505v-4.002h0.879v3.725l2.438,2.438h1.711l2.735-2.732c-0.02-0.559-0.028-1.125-0.086-1.675   h-1.877l-1.733-1.736l0.601-0.6l1.582,1.586h1.315c-0.379-2.951-1.238-5.741-2.49-8.313v0.454h-0.646v0.554l1.632,1.629v1.07   h-1.375l-0.47-0.464v-0.992l-1.369-1.412l1.369-1.375h0.599c-1.449-2.817-3.379-5.33-5.683-7.458l-0.678,0.674h-0.449l-0.569-0.569   l0.829,0.029v-0.813l-0.495-0.489h-4.986l-3.114,3.114v1.447h1.61l0.834,0.831h0.841l0.567-0.563v-2.239l1.063-1.063h0.721   l-1.217,1.215v0.961h1.732v0.476l-1.822,1.817c0,0-2.561,0.097-2.461,0c0.096-0.099-0.34-0.66-0.34-0.66h-0.902l-2.332,2.33h-1.52   v0.707h0.725v1.969h-2.229v2.142l0.496,0.495h1.432l2.047-2.047v-0.761h2.025l1.756,1.755l0.727-0.726l-1.625-1.627h1.023   l1.395,1.39v0.837h1.521v-0.559h0.641l1.861,1.861h1.607v1.395l-0.984,0.984h-3.299v-0.856h-4.068v-1.283h-5.695l-3.684,3.684   v6.725l2.613,2.613h6.295v2.824l1.586,1.584v10.541l1.479,1.475h1.904l3.865-3.863v-2.154l2.068-2.07v-4.739l4.059-4.056v-2.282   h-2.842L67.182,47.505z M64.932,38.274l-0.623-0.618l0.021-0.577l0.922-0.924h2.209l1.508,1.511v0.608H64.932z M37.99,55.794   v-0.905h-2.22l-3.861-3.861h-4.465l-0.717,0.72h-1.65l-0.918-0.921V48.6H23.17v-1.704h-0.631l-0.867,0.866h-0.66   c0,0.08-0.012,0.155-0.012,0.233c0,0.419,0.045,0.821,0.064,1.237l0.309,0.311h0.684l2.961,2.955h0.801v2.175l-0.52,0.524v4.299   l2.625,2.625h0.74l1.383,1.383v4.623c1.277,1.143,2.662,2.161,4.143,3.049h0.977v-1.205l1.883-1.882V66.16l1.754-1.756h0.924   v-3.877l1.947-1.948v-1.865H38.91L37.99,55.794z M51.527,23.188h-8.773l-1.059,1.064h-2.441v1.154h2.441v1.733h1.221l-0.705,0.707   h-0.834v2.971h1.361l1.529-1.526h1.057l2.605-2.602h0.961l3.151-3.147L51.527,23.188z" fill="url(#SVGID_6_)"/>
<path d="M54.172,33.2h0.18v-0.934l-0.006-0.005l0.006-0.006v-0.629h-0.461l0.365-0.363   h-0.541l-0.357,0.332v0.567l0.814,0.813V33.2z M53.299,33.074v-0.528h-0.496l-0.461,0.382V33.2h0.831L53.299,33.074z    M39.254,25.406h2.123v-1.154h-2.123V25.406z M38.291,24.441h-1.07v0.75l-0.041,0.041h0.318L38.291,24.441z M70.189,32.699   l-0.16,0.161l0.891,0.918C70.689,33.409,70.438,33.056,70.189,32.699z M74.053,41.084c-0.064-0.25-0.119-0.504-0.191-0.75H73.43   L73,39.903h-1.133l-0.469-0.464v-0.242l-0.15,0.15l1.734,1.736L74.053,41.084L74.053,41.084z M71.996,35.66   c-0.186-0.358-0.398-0.697-0.598-1.045v0.649l0.398,0.396H71.996z M73.43,44.509h1.316c-0.059-0.448-0.146-0.884-0.227-1.325   l-1.209,1.207L73.43,44.509z M35.802,23.951c-0.141,0.071-0.286,0.136-0.425,0.21h0.215L35.802,23.951z M68.967,34.1v-0.608   l-1.508-1.511H65.25l-0.922,0.924l-0.02,0.577l0.623,0.618H68.967z M58.721,28.854c-0.1,0.097,2.461,0,2.461,0l1.822-1.817v-0.004   h-2.301v0.654l-0.568,0.563h-0.84l-0.273-0.273l-0.465,0.465C58.664,28.606,58.773,28.799,58.721,28.854z M38.975,23.769h1.855   l0.416-0.417h-2.945l0.544,0.544L38.975,23.769z M59.793,57.807v-4.176l-1.586-1.584v-2.824h-6.295l-2.613-2.614v4.175l2.613,2.612   h6.295v2.826L59.793,57.807z M51.951,34.091h0.172v-0.598l-0.172,0.174V34.091z M67.041,61.782l-3.865,3.864h-1.904l-1.479-1.477   v4.176l1.479,1.475h1.904l3.865-3.863v-2.154l2.068-2.07v-4.174l-2.068,2.068V61.782z M74.945,46.934   c-0.021-0.559-0.029-1.125-0.086-1.675h-1.877l-0.271-0.271l-0.504,0.503h-1.711l-2.438-2.438v-3.725H67.18v4.002l0.174,0.173   h0.705v0.708l2.267,2.269h2.842v2.229L74.945,46.934z M69.109,52.816v4.176l4.059-4.055v-2.283h-1.893L69.109,52.816z    M51.527,23.188H49L47,26h-2.732l-1.529,0.643h-1.043v0.497h1.221l-0.705,0.707h-0.834v2.971h1.361l1.529-1.526h1.057l2.605-2.602   h0.96l3.152-3.147L51.527,23.188z M30.367,29.196h0.428l1.006-1.008v-0.557h-0.303L31.072,27.2l0.625-0.625h-0.082   c-0.844,0.646-1.643,1.345-2.402,2.084v0.005h1.154V29.196z M34.693,25.948h-1.15l-0.016,0.015h1.123v1.004h0.385l0.236,0.237   h0.277l0.879-0.878v2.206l0.793,0.792v-0.708h1.178l0.494-0.498l-2.301-2.3l-0.059,0.058h-0.768l-0.201-0.2h-0.111l0.055-0.056   l-0.902-0.899v-0.126c-0.433,0.248-0.866,0.493-1.283,0.765v0.285h1.67L34.693,25.948z M25.055,42.688l0.518,0.515v1.241h0.553   V42.09l1.627-1.629h1.072l3.215-3.215h1.883l0.516-0.51v-1.629H33.88v-0.423h2.66l0.693-0.688v-0.483l-0.805-0.804v-2.2h-0.006   l-0.873,0.872H34.65v-0.872h-0.771v0.423h0.559v1.629l-0.516,0.51h-1.883l-3.215,3.215h-1.072l-1.627,1.629v2.354h-0.553v-1.241   l-0.518-0.515h-2.309c-0.572,1.522-1.014,3.108-1.305,4.748l0.574-0.573H25.055z M39.727,60.229h-0.924l-1.754,1.756v1.928   l-1.883,1.882V67h-0.977c-1.48-0.889-2.865-1.906-4.143-3.049v4.175c1.277,1.142,2.662,2.161,4.143,3.049h0.977v-1.206l1.883-1.881   v-1.929l1.754-1.755h0.924v-3.879l1.947-1.947v-1.865h-1.947V60.229z M30.047,59.328l-1.383-1.383h-0.74l-2.625-2.625v4.175   l2.625,2.625h0.74l1.383,1.383V59.328z M25.299,51.746h-0.223l-0.918-0.921v-2.228H23.17v-1.703h-0.631l-0.867,0.866h-0.66   c0,0.08-0.012,0.155-0.012,0.233c0,0.419,0.045,0.82,0.064,1.236l0.309,0.312h0.684l2.961,2.955h0.281V51.746z" fill-opacity="0.02" stroke-opacity="0.02"/>
<path d="M34.328,70.675c-1.341-0.813-2.611-1.745-3.781-2.774v-2.86   c1.063,0.877,2.198,1.679,3.386,2.39c0.077,0.047,0.166,0.071,0.257,0.071h0.977c0.276,0,0.5-0.224,0.5-0.5v-0.999l1.736-1.734   c0.094-0.095,0.146-0.222,0.146-0.354v-1.722l1.461-1.461h0.217v3.174h-0.424c-0.133,0-0.26,0.054-0.354,0.146l-1.754,1.756   c-0.094,0.094-0.146,0.221-0.146,0.354v1.722l-1.736,1.734c-0.094,0.094-0.146,0.221-0.146,0.354v0.705L34.328,70.675   L34.328,70.675z M61.479,69.32l-1.186-1.182v-2.763L60.918,66c0.094,0.094,0.221,0.146,0.354,0.146h1.904   c0.133,0,0.26-0.053,0.354-0.146l3.865-3.863c0.094-0.095,0.146-0.222,0.146-0.354v-1.948l1.068-1.068v2.76l-1.922,1.924   c-0.095,0.094-0.146,0.222-0.146,0.354v1.948l-3.572,3.571h-1.49V69.32z M29.018,61.768c-0.094-0.095-0.221-0.146-0.354-0.146   h-0.533l-2.332-2.332v-2.762l1.771,1.771c0.094,0.094,0.221,0.146,0.354,0.146h0.533l1.09,1.09v2.761L29.018,61.768z    M40.227,57.213h0.947v1.158l-0.947,0.947V57.213z M58.707,56.014v-2.617c0-0.062-0.012-0.119-0.031-0.174l0.617,0.615V56.6   L58.707,56.014z M69.609,53.025l1.873-1.871h1.186v1.576l-3.059,3.056V53.025z M58.382,52.928c-0.055-0.02-0.112-0.031-0.175-0.031   h-6.088l-2.32-2.319v-2.761l1.76,1.76c0.094,0.094,0.221,0.146,0.354,0.146h5.795v2.324c0,0.133,0.054,0.26,0.146,0.354   L58.382,52.928z M22.41,49.188c-0.094-0.092-0.221-0.146-0.354-0.146H21.58l-0.028-0.028c-0.005-0.089-0.04-0.59-0.047-0.751h0.166   c0.133,0,0.26-0.053,0.354-0.146l0.645-0.644V48.6c0,0.275,0.224,0.5,0.5,0.5h0.488v1.336L22.41,49.188z M73.668,46.479   c0-0.276-0.225-0.5-0.5-0.5h-0.852c0.093-0.021,0.178-0.066,0.246-0.134l0.16-0.16c0.076,0.047,0.166,0.073,0.26,0.073h1.416   c0.019,0.298,0.027,0.6,0.037,0.899l0.002,0.076l-0.771,0.77L73.668,46.479L73.668,46.479z M25.407,42.333   c-0.094-0.093-0.221-0.146-0.353-0.146h-2.888c0.241-1.072,0.552-2.135,0.928-3.175h1.754l0.224,0.223v1.033   c0,0.276,0.224,0.5,0.5,0.5h0.553c0.276,0,0.5-0.224,0.5-0.5v-2.146l1.334-1.336h0.865c0.133,0,0.26-0.053,0.354-0.146l3.068-3.069   h1.676c0.132,0,0.258-0.052,0.352-0.145l0.516-0.51c0.095-0.094,0.148-0.222,0.148-0.355V31.88h0.611   c0.133,0,0.26-0.053,0.354-0.146l0.025-0.025v1c0,0.133,0.053,0.26,0.146,0.354l0.658,0.658v0.067l-0.399,0.396h-2.454   c-0.276,0-0.5,0.224-0.5,0.5v0.423c0,0.276,0.224,0.5,0.5,0.5h0.059v0.921l-0.222,0.218h-1.677c-0.133,0-0.26,0.053-0.354,0.147   l-3.068,3.068h-0.865c-0.133,0-0.26,0.053-0.354,0.146l-1.627,1.629c-0.094,0.094-0.146,0.221-0.146,0.354v0.46L25.407,42.333z    M65.139,33.6l-0.322-0.319l0.006-0.161l0.636-0.639h1.795l1.116,1.119H65.139z M41.877,30.317v-1.971h0.334   c0.133,0,0.26-0.053,0.354-0.147l0.705-0.707c0.143-0.144,0.185-0.358,0.107-0.545c-0.004-0.009-0.008-0.018-0.012-0.026   l1.002-0.421H47c0.162,0,0.313-0.078,0.407-0.21l1.851-2.602h1.932l-2.506,2.501H47.93c-0.133,0-0.26,0.053-0.354,0.146   l-2.459,2.456h-0.85c-0.133,0-0.26,0.053-0.354,0.146l-1.383,1.381L41.877,30.317L41.877,30.317z M30.823,28.46   c-0.064-0.145-0.196-0.253-0.355-0.285c0.154-0.138,0.309-0.272,0.464-0.405l0.211,0.213c0.026,0.027,0.056,0.051,0.087,0.07   L30.823,28.46z M61.055,28.043c0.096-0.094,0.148-0.222,0.148-0.355v-0.154h0.596l-0.831,0.829   c-0.067,0.002-0.149,0.005-0.243,0.008L61.055,28.043z M36.928,26.861l1.255,1.255h-0.962c-0.109,0-0.211,0.035-0.293,0.095V26.861   z M35.39,26.614c-0.066-0.066-0.149-0.112-0.239-0.133v-0.284l0.084-0.085c0.034,0.021,0.069,0.038,0.107,0.049l0.071,0.07   c0.072,0.072,0.165,0.12,0.265,0.138l-0.267,0.267L35.39,26.614z M39.754,24.906v-0.154h1.123v0.154H39.754z" fill-opacity="0.06" stroke-opacity="0.06"/>
<linearGradient gradientTransform="matrix(1 0 0 -1 -262.4805 -290.0195)" gradientUnits="userSpaceOnUse" id="SVGID_7_" x1="310.4473" x2="310.4473" y1="-369.0962" y2="-354.3545">
<stop offset="0" style="stop-color:#FFFFFF"/>
<stop offset="1" style="stop-color:#FFFFFF;stop-opacity:0"/>
</linearGradient>
<path d="M47.943,74.959c-9.674,0-18.625-5.236-23.369-13.664   l46.785-0.077C66.631,69.693,57.658,74.959,47.943,74.959L47.943,74.959z" fill="url(#SVGID_7_)" fill-opacity="0.3" stroke-opacity="0.3"/>
</g>
</svg>
